PathFileType	4	(X/Y/Z)	D:\telocate\uwb02-Unnamed.trc
DataRate	CameraRate	NumFrames	NumMarkers	Units	OrigDataRate	OrigDataStartFrame	OrigNumFrames
100.00	100.00	      133	0	mm	100.00	569	      4547
Frame#	Time	
		

569	5.680	-1666.66968	2015.15698	1185.89343	
570	5.690	-1667.10376	2015.33301	1185.92432	
571	5.700	-1667.35120	2015.35364	1185.89136	
572	5.710	-1667.14124	2015.41516	1185.93298	
573	5.720	-1667.61987	2015.62842	1186.34192	
574	5.730	-1667.20703	2015.75854	1185.94141	
575	5.740	-1665.54858	2015.24890	1185.56409	
576	5.750	-1666.09375	2015.18713	1185.64868	
577	5.760	-1666.20569	2015.19751	1185.58972	
578	5.770	-1666.38831	2015.33020	1185.46094	
579	5.780	-1666.40662	2015.34729	1185.51575	
580	5.790	-1670.19409	2016.27222	1186.20715	
581	5.800	-1672.97900	2015.22363	1184.16125	
582	5.810	-1673.10999	2015.46960	1184.00061	
583	5.820	-1673.13293	2015.77234	1183.70325	
584	5.830	-1673.18750	2015.89954	1183.87878	
585	5.840	-1670.70313	2017.15942	1185.87012	
586	5.850	-1673.16479	2016.40125	1183.91602	
587	5.860	-1672.28821	2016.08984	1183.15955	
588	5.870	-1669.50769	2017.06836	1184.80518	
589	5.880	-1669.85413	2017.59265	1185.31165	
590	5.890	-1669.54443	2018.51782	1185.49768	
591	5.900	-1669.44031	2018.73303	1185.53906	
592	5.910	-1670.27393	2018.99170	1185.06262	
593	5.920	-1670.08069	2019.51782	1186.04810	
594	5.930	-1670.14014	2019.63025	1185.96851	
595	5.940	-1670.10913	2019.79895	1186.07471	
596	5.950	-1670.14185	2019.95105	1186.06213	
597	5.960	-1670.11011	2020.02319	1186.03552	
598	5.970	-1670.15393	2020.18665	1185.98389	
599	5.980	-1670.15295	2020.48938	1185.81189	
600	5.990	-1670.30627	2020.70593	1185.92053	
601	6.000	-1670.31946	2020.96179	1185.82910	
602	6.010	-1670.34436	2020.98865	1185.81091	
603	6.020	-1670.40869	2021.02563	1185.79517	
604	6.030	-1670.31433	2021.10657	1185.87305	
605	6.040	-1670.36072	2021.26221	1185.82483	
606	6.050	-1670.10730	2021.42371	1186.04590	
607	6.060	-1670.29517	2021.33508	1185.79871	
608	6.070	-1670.03479	2021.40979	1185.96375	
609	6.080	-1670.07458	2021.53101	1185.94141	
610	6.090	-1670.28052	2021.50659	1185.77844	
611	6.100	-1669.75159	2021.64966	1185.89270	
612	6.110	-1670.01331	2021.63318	1185.95911	
613	6.120	-1669.99597	2021.61108	1185.88403	
614	6.130	-1669.94385	2021.68542	1185.90918	
615	6.140	-1669.69617	2021.68469	1185.87256	
616	6.150	-1669.95325	2021.69727	1185.92346	
617	6.160	-1669.67004	2021.73816	1185.86743	
618	6.170	-1669.59729	2021.81726	1185.87341	
619	6.180	-1669.32886	2021.93762	1186.12622	
620	6.190	-1669.27893	2021.90149	1186.11438	
621	6.200	-1669.04834	2021.92188	1186.12183	
622	6.210	-1669.56885	2021.91516	1186.18652	
623	6.220	-1669.83826	2021.73340	1185.94763	
624	6.230	-1669.37769	2021.87646	1186.16370	
625	6.240	-1669.91626	2021.69287	1185.94531	
626	6.250	-1669.38147	2021.62842	1186.11157	
627	6.260	-1669.51025	2021.45337	1185.89343	
628	6.270	-1669.72900	2021.41541	1186.24353	
629	6.280	-1670.01306	2021.18201	1186.00598	
630	6.290	-1670.13635	2020.95959	1185.83362	
631	6.300	-1670.27136	2021.01660	1185.81982	
632	6.310	-1670.21033	2020.79749	1185.68774	
633	6.320	-1670.26941	2020.72009	1185.90076	
634	6.330	-1670.19409	2020.62756	1185.92102	
635	6.340	-1670.22327	2020.61255	1185.90149	
636	6.350	-1670.45789	2020.65552	1185.78943	
637	6.360	-1670.62781	2020.73682	1185.70313	
638	6.370	-1670.68872	2020.81836	1185.76953	
639	6.380	-1671.93323	2021.51379	1185.63818	
640	6.390	-1670.83032	2020.86890	1185.79639	
641	6.400	-1672.62329	2021.22021	1185.96057	
642	6.410	-1672.65027	2021.13220	1185.93628	
643	6.420	-1672.52307	2021.52771	1185.85559	
644	6.430	-1672.93335	2021.22778	1186.09180	
645	6.440	-1672.74072	2021.58972	1185.90100	
646	6.450	-1673.02417	2021.54456	1186.02197	
647	6.460	-1673.00513	2021.56555	1185.94202	
648	6.470	-1673.06030	2021.55530	1185.93616	
649	6.480	-1673.09363	2021.53247	1185.89722	
650	6.490	-1673.15198	2021.58643	1185.87439	
651	6.500	-1673.24487	2021.60291	1185.82813	
652	6.510	-1673.25989	2021.76477	1185.74475	
653	6.520	-1673.39697	2021.80872	1185.76709	
654	6.530	-1673.29285	2021.83728	1185.74536	
655	6.540	-1673.26941	2021.90881	1185.66333	
656	6.550	-1673.25916	2021.94446	1185.65564	
657	6.560	-1673.29578	2021.92395	1185.68457	
658	6.570	-1673.32642	2021.96521	1185.67029	
659	6.580	-1673.38867	2022.03027	1185.61792	
660	6.590	-1673.39575	2022.07983	1185.62793	
661	6.600	-1673.39368	2022.18713	1185.62415	
662	6.610	-1673.43445	2022.21094	1185.60474	
663	6.620	-1673.47607	2022.26746	1185.60876	
664	6.630	-1673.53979	2022.31201	1185.64807	
665	6.640	-1673.56238	2022.33655	1185.63318	
666	6.650	-1673.60754	2022.43030	1185.59045	
667	6.660	-1673.66687	2022.65649	1185.74341	
668	6.670	-1673.70459	2022.57080	1185.51074	
669	6.680	-1673.89954	2022.65454	1185.54407	
670	6.690	-1674.01147	2022.77795	1185.54211	
671	6.700	-1674.08667	2023.11768	1185.75208	
672	6.710	-1674.16772	2023.39417	1185.89001	
673	6.720	-1674.24927	2023.43616	1185.87976	
674	6.730	-1674.13953	2023.42639	1185.63904	
675	6.740	-1674.17236	2023.69275	1186.05127	
676	6.750	-1674.33508	2023.86890	1185.98877	
677	6.760	-1674.45166	2023.73328	1185.54541	
678	6.770	-1674.36243	2023.75549	1185.75964	
679	6.780	-1674.54761	2023.86243	1185.74634	
680	6.790	-1674.45276	2023.82617	1185.52478	
681	6.800	-1674.42712	2024.08423	1185.96558	
682	6.810	-1674.52893	2024.29016	1186.01257	
683	6.820	-1674.55139	2024.08557	1185.57227	
684	6.830	-1674.57214	2024.21411	1185.79187	
685	6.840	-1674.40515	2024.34045	1185.98059	
686	6.850	-1674.42505	2024.14856	1185.52832	
687	6.860	-1674.43286	2024.42322	1185.99670	
688	6.870	-1674.43091	2024.23193	1185.59802	
689	6.880	-1674.35400	2024.26123	1185.64709	
690	6.890	-1674.26563	2024.50220	1186.07288	
691	6.900	-1674.27698	2024.41431	1185.91638	
692	6.910	-1674.22571	2024.41516	1185.90283	
693	6.920	-1674.09412	2024.48010	1186.11755	
694	6.930	-1674.02332	2024.31458	1186.06897	
695	6.940	-1673.96533	2024.03735	1185.69275	
696	6.950	-1673.82813	2024.03918	1185.89709	
697	6.960	-1673.61084	2023.95618	1185.44568	
698	6.970	-1673.74231	2024.00757	1185.66113	
699	6.980	-1673.69763	2023.98560	1185.91968	
700	6.990	-1673.59058	2023.91248	1185.79333	
701	7.000	-1673.35718	2023.71680	1185.55627	
